<mxfile host="app.diagrams.net" modified="2021-05-30T07:45:20.094Z" agent="5.0 (Windows NT 10.0; Win64; x64) AppleWebKit/537.36 (KHTML, like Gecko) Chrome/90.0.4430.212 Safari/537.36" etag="iv6qHH8g5-ClisKODroY" version="14.7.3" type="github">
  <diagram id="GtILbTFJ0FTtY-5zLsUg" name="Page-1">
    <mxGraphModel dx="2062" dy="1123" grid="1" gridSize="10" guides="1" tooltips="1" connect="1" arrows="1" fold="1" page="1" pageScale="1" pageWidth="827" pageHeight="1169" math="0" shadow="0">
      <root>
        <mxCell id="0" />
        <mxCell id="1" parent="0" />
        <mxCell id="-72PhuZYiqAgGAwzkjjb-24" style="edgeStyle=orthogonalEdgeStyle;rounded=0;orthogonalLoop=1;jettySize=auto;html=1;exitX=0.5;exitY=1;exitDx=0;exitDy=0;" edge="1" parent="1" source="-72PhuZYiqAgGAwzkjjb-1" target="-72PhuZYiqAgGAwzkjjb-23">
          <mxGeometry relative="1" as="geometry" />
        </mxCell>
        <mxCell id="-72PhuZYiqAgGAwzkjjb-1" value="0&lt;br&gt;发送就绪" style="ellipse;whiteSpace=wrap;html=1;aspect=fixed;" vertex="1" parent="1">
          <mxGeometry x="290" y="350" width="80" height="80" as="geometry" />
        </mxCell>
        <mxCell id="-72PhuZYiqAgGAwzkjjb-27" style="edgeStyle=orthogonalEdgeStyle;rounded=0;orthogonalLoop=1;jettySize=auto;html=1;exitX=0.5;exitY=1;exitDx=0;exitDy=0;" edge="1" parent="1" source="-72PhuZYiqAgGAwzkjjb-2" target="-72PhuZYiqAgGAwzkjjb-26">
          <mxGeometry relative="1" as="geometry" />
        </mxCell>
        <mxCell id="-72PhuZYiqAgGAwzkjjb-2" value="1&lt;br&gt;发送中" style="ellipse;whiteSpace=wrap;html=1;aspect=fixed;" vertex="1" parent="1">
          <mxGeometry x="290" y="610" width="80" height="80" as="geometry" />
        </mxCell>
        <mxCell id="-72PhuZYiqAgGAwzkjjb-47" style="edgeStyle=orthogonalEdgeStyle;rounded=0;orthogonalLoop=1;jettySize=auto;html=1;exitX=0.5;exitY=1;exitDx=0;exitDy=0;entryX=0.5;entryY=0;entryDx=0;entryDy=0;" edge="1" parent="1" source="-72PhuZYiqAgGAwzkjjb-3" target="-72PhuZYiqAgGAwzkjjb-44">
          <mxGeometry relative="1" as="geometry" />
        </mxCell>
        <mxCell id="-72PhuZYiqAgGAwzkjjb-3" value="2&lt;br&gt;发送完成" style="ellipse;whiteSpace=wrap;html=1;aspect=fixed;" vertex="1" parent="1">
          <mxGeometry x="290" y="890" width="80" height="80" as="geometry" />
        </mxCell>
        <mxCell id="-72PhuZYiqAgGAwzkjjb-50" style="edgeStyle=orthogonalEdgeStyle;rounded=0;orthogonalLoop=1;jettySize=auto;html=1;exitX=0.5;exitY=1;exitDx=0;exitDy=0;entryX=0.5;entryY=0;entryDx=0;entryDy=0;" edge="1" parent="1" source="-72PhuZYiqAgGAwzkjjb-4" target="-72PhuZYiqAgGAwzkjjb-37">
          <mxGeometry relative="1" as="geometry">
            <Array as="points">
              <mxPoint x="600" y="1170" />
              <mxPoint x="330" y="1170" />
            </Array>
          </mxGeometry>
        </mxCell>
        <mxCell id="-72PhuZYiqAgGAwzkjjb-4" value="3&lt;br&gt;发送失败" style="ellipse;whiteSpace=wrap;html=1;aspect=fixed;" vertex="1" parent="1">
          <mxGeometry x="560" y="750" width="80" height="80" as="geometry" />
        </mxCell>
        <mxCell id="-72PhuZYiqAgGAwzkjjb-11" style="edgeStyle=orthogonalEdgeStyle;rounded=0;orthogonalLoop=1;jettySize=auto;html=1;exitX=0.5;exitY=1;exitDx=0;exitDy=0;" edge="1" parent="1">
          <mxGeometry relative="1" as="geometry">
            <mxPoint x="434" y="360" as="sourcePoint" />
            <mxPoint x="434" y="360" as="targetPoint" />
          </mxGeometry>
        </mxCell>
        <mxCell id="-72PhuZYiqAgGAwzkjjb-22" style="edgeStyle=orthogonalEdgeStyle;rounded=0;orthogonalLoop=1;jettySize=auto;html=1;exitX=0.5;exitY=1;exitDx=0;exitDy=0;" edge="1" parent="1" source="-72PhuZYiqAgGAwzkjjb-19" target="-72PhuZYiqAgGAwzkjjb-1">
          <mxGeometry relative="1" as="geometry" />
        </mxCell>
        <mxCell id="-72PhuZYiqAgGAwzkjjb-54" style="edgeStyle=orthogonalEdgeStyle;rounded=0;orthogonalLoop=1;jettySize=auto;html=1;exitX=0;exitY=0.5;exitDx=0;exitDy=0;entryX=0.5;entryY=0;entryDx=0;entryDy=0;" edge="1" parent="1" source="-72PhuZYiqAgGAwzkjjb-19" target="-72PhuZYiqAgGAwzkjjb-37">
          <mxGeometry relative="1" as="geometry">
            <Array as="points">
              <mxPoint x="60" y="270" />
              <mxPoint x="60" y="1170" />
              <mxPoint x="330" y="1170" />
            </Array>
          </mxGeometry>
        </mxCell>
        <mxCell id="-72PhuZYiqAgGAwzkjjb-19" value="校验该活动执行id是否已存在" style="rhombus;whiteSpace=wrap;html=1;" vertex="1" parent="1">
          <mxGeometry x="220" y="230" width="220" height="80" as="geometry" />
        </mxCell>
        <mxCell id="-72PhuZYiqAgGAwzkjjb-25" style="edgeStyle=orthogonalEdgeStyle;rounded=0;orthogonalLoop=1;jettySize=auto;html=1;exitX=0.5;exitY=1;exitDx=0;exitDy=0;" edge="1" parent="1" source="-72PhuZYiqAgGAwzkjjb-23" target="-72PhuZYiqAgGAwzkjjb-2">
          <mxGeometry relative="1" as="geometry" />
        </mxCell>
        <mxCell id="-72PhuZYiqAgGAwzkjjb-55" style="edgeStyle=orthogonalEdgeStyle;rounded=0;orthogonalLoop=1;jettySize=auto;html=1;exitX=0;exitY=0.5;exitDx=0;exitDy=0;" edge="1" parent="1" source="-72PhuZYiqAgGAwzkjjb-23" target="-72PhuZYiqAgGAwzkjjb-37">
          <mxGeometry relative="1" as="geometry">
            <Array as="points">
              <mxPoint x="680" y="510" />
              <mxPoint x="680" y="1170" />
              <mxPoint x="330" y="1170" />
            </Array>
          </mxGeometry>
        </mxCell>
        <mxCell id="-72PhuZYiqAgGAwzkjjb-23" value="&lt;span&gt;校验是否有相同渠道的活动正在发往这个topic&lt;/span&gt;" style="rhombus;whiteSpace=wrap;html=1;" vertex="1" parent="1">
          <mxGeometry x="170" y="470" width="320" height="80" as="geometry" />
        </mxCell>
        <mxCell id="-72PhuZYiqAgGAwzkjjb-31" style="edgeStyle=orthogonalEdgeStyle;rounded=0;orthogonalLoop=1;jettySize=auto;html=1;exitX=0.5;exitY=1;exitDx=0;exitDy=0;entryX=0.5;entryY=0;entryDx=0;entryDy=0;" edge="1" parent="1" source="-72PhuZYiqAgGAwzkjjb-26" target="-72PhuZYiqAgGAwzkjjb-3">
          <mxGeometry relative="1" as="geometry" />
        </mxCell>
        <mxCell id="-72PhuZYiqAgGAwzkjjb-32" style="edgeStyle=orthogonalEdgeStyle;rounded=0;orthogonalLoop=1;jettySize=auto;html=1;exitX=1;exitY=0.5;exitDx=0;exitDy=0;" edge="1" parent="1" source="-72PhuZYiqAgGAwzkjjb-26" target="-72PhuZYiqAgGAwzkjjb-4">
          <mxGeometry relative="1" as="geometry" />
        </mxCell>
        <mxCell id="-72PhuZYiqAgGAwzkjjb-26" value="&lt;span&gt;是否正常发送成功&lt;/span&gt;" style="rhombus;whiteSpace=wrap;html=1;" vertex="1" parent="1">
          <mxGeometry x="220" y="750" width="220" height="80" as="geometry" />
        </mxCell>
        <mxCell id="-72PhuZYiqAgGAwzkjjb-28" value="Y" style="text;html=1;align=center;verticalAlign=middle;resizable=0;points=[];autosize=1;strokeColor=none;" vertex="1" parent="1">
          <mxGeometry x="340" y="320" width="20" height="20" as="geometry" />
        </mxCell>
        <mxCell id="-72PhuZYiqAgGAwzkjjb-29" value="Y" style="text;html=1;align=center;verticalAlign=middle;resizable=0;points=[];autosize=1;strokeColor=none;" vertex="1" parent="1">
          <mxGeometry x="350" y="850" width="20" height="20" as="geometry" />
        </mxCell>
        <mxCell id="-72PhuZYiqAgGAwzkjjb-30" value="Y" style="text;html=1;align=center;verticalAlign=middle;resizable=0;points=[];autosize=1;strokeColor=none;" vertex="1" parent="1">
          <mxGeometry x="340" y="574.5" width="20" height="20" as="geometry" />
        </mxCell>
        <mxCell id="-72PhuZYiqAgGAwzkjjb-33" value="N" style="text;html=1;align=center;verticalAlign=middle;resizable=0;points=[];autosize=1;strokeColor=none;" vertex="1" parent="1">
          <mxGeometry x="490" y="770" width="20" height="20" as="geometry" />
        </mxCell>
        <mxCell id="-72PhuZYiqAgGAwzkjjb-36" style="edgeStyle=orthogonalEdgeStyle;rounded=0;orthogonalLoop=1;jettySize=auto;html=1;exitX=0.5;exitY=1;exitDx=0;exitDy=0;" edge="1" parent="1" source="-72PhuZYiqAgGAwzkjjb-34" target="-72PhuZYiqAgGAwzkjjb-19">
          <mxGeometry relative="1" as="geometry" />
        </mxCell>
        <mxCell id="-72PhuZYiqAgGAwzkjjb-34" value="&lt;span&gt;start&lt;/span&gt;" style="rounded=1;whiteSpace=wrap;html=1;" vertex="1" parent="1">
          <mxGeometry x="270" y="130" width="120" height="60" as="geometry" />
        </mxCell>
        <mxCell id="-72PhuZYiqAgGAwzkjjb-37" value="&lt;span&gt;end&lt;br&gt;&lt;/span&gt;" style="rounded=1;whiteSpace=wrap;html=1;" vertex="1" parent="1">
          <mxGeometry x="270" y="1200" width="120" height="60" as="geometry" />
        </mxCell>
        <mxCell id="-72PhuZYiqAgGAwzkjjb-39" value="N" style="text;html=1;align=center;verticalAlign=middle;resizable=0;points=[];autosize=1;strokeColor=none;" vertex="1" parent="1">
          <mxGeometry x="160" y="250" width="20" height="20" as="geometry" />
        </mxCell>
        <mxCell id="-72PhuZYiqAgGAwzkjjb-45" style="edgeStyle=orthogonalEdgeStyle;rounded=0;orthogonalLoop=1;jettySize=auto;html=1;exitX=0;exitY=0.5;exitDx=0;exitDy=0;entryX=0;entryY=0.5;entryDx=0;entryDy=0;" edge="1" parent="1" source="-72PhuZYiqAgGAwzkjjb-44" target="-72PhuZYiqAgGAwzkjjb-2">
          <mxGeometry relative="1" as="geometry">
            <Array as="points">
              <mxPoint x="140" y="1070" />
              <mxPoint x="140" y="650" />
            </Array>
          </mxGeometry>
        </mxCell>
        <mxCell id="-72PhuZYiqAgGAwzkjjb-48" style="edgeStyle=orthogonalEdgeStyle;rounded=0;orthogonalLoop=1;jettySize=auto;html=1;exitX=0.5;exitY=1;exitDx=0;exitDy=0;" edge="1" parent="1" source="-72PhuZYiqAgGAwzkjjb-44" target="-72PhuZYiqAgGAwzkjjb-37">
          <mxGeometry relative="1" as="geometry" />
        </mxCell>
        <mxCell id="-72PhuZYiqAgGAwzkjjb-44" value="&lt;span&gt;是否有相同渠道的活动处于就绪状态&lt;/span&gt;" style="rhombus;whiteSpace=wrap;html=1;" vertex="1" parent="1">
          <mxGeometry x="190" y="1030" width="280" height="80" as="geometry" />
        </mxCell>
        <mxCell id="-72PhuZYiqAgGAwzkjjb-46" value="Y" style="text;html=1;align=center;verticalAlign=middle;resizable=0;points=[];autosize=1;strokeColor=none;" vertex="1" parent="1">
          <mxGeometry x="160" y="1040" width="20" height="20" as="geometry" />
        </mxCell>
        <mxCell id="-72PhuZYiqAgGAwzkjjb-49" value="N" style="text;html=1;align=center;verticalAlign=middle;resizable=0;points=[];autosize=1;strokeColor=none;" vertex="1" parent="1">
          <mxGeometry x="350" y="1130" width="20" height="20" as="geometry" />
        </mxCell>
        <mxCell id="-72PhuZYiqAgGAwzkjjb-53" value="N" style="text;html=1;align=center;verticalAlign=middle;resizable=0;points=[];autosize=1;strokeColor=none;" vertex="1" parent="1">
          <mxGeometry x="540" y="480" width="20" height="20" as="geometry" />
        </mxCell>
        <mxCell id="-72PhuZYiqAgGAwzkjjb-58" style="edgeStyle=orthogonalEdgeStyle;rounded=0;orthogonalLoop=1;jettySize=auto;html=1;exitX=0.5;exitY=1;exitDx=0;exitDy=0;" edge="1" parent="1" source="-72PhuZYiqAgGAwzkjjb-56" target="-72PhuZYiqAgGAwzkjjb-57">
          <mxGeometry relative="1" as="geometry" />
        </mxCell>
        <mxCell id="-72PhuZYiqAgGAwzkjjb-56" value="启动自检" style="rounded=1;whiteSpace=wrap;html=1;" vertex="1" parent="1">
          <mxGeometry x="950" y="120" width="120" height="60" as="geometry" />
        </mxCell>
        <mxCell id="-72PhuZYiqAgGAwzkjjb-62" style="edgeStyle=orthogonalEdgeStyle;rounded=0;orthogonalLoop=1;jettySize=auto;html=1;exitX=0.5;exitY=1;exitDx=0;exitDy=0;" edge="1" parent="1" source="-72PhuZYiqAgGAwzkjjb-57" target="-72PhuZYiqAgGAwzkjjb-61">
          <mxGeometry relative="1" as="geometry" />
        </mxCell>
        <mxCell id="-72PhuZYiqAgGAwzkjjb-65" style="edgeStyle=orthogonalEdgeStyle;rounded=0;orthogonalLoop=1;jettySize=auto;html=1;exitX=1;exitY=0.5;exitDx=0;exitDy=0;" edge="1" parent="1" source="-72PhuZYiqAgGAwzkjjb-57" target="-72PhuZYiqAgGAwzkjjb-64">
          <mxGeometry relative="1" as="geometry" />
        </mxCell>
        <mxCell id="-72PhuZYiqAgGAwzkjjb-57" value="是否有活动处于正在执行状态" style="rhombus;whiteSpace=wrap;html=1;" vertex="1" parent="1">
          <mxGeometry x="900" y="230" width="220" height="80" as="geometry" />
        </mxCell>
        <mxCell id="-72PhuZYiqAgGAwzkjjb-71" style="edgeStyle=orthogonalEdgeStyle;rounded=0;orthogonalLoop=1;jettySize=auto;html=1;exitX=0.5;exitY=1;exitDx=0;exitDy=0;" edge="1" parent="1" source="-72PhuZYiqAgGAwzkjjb-61" target="-72PhuZYiqAgGAwzkjjb-70">
          <mxGeometry relative="1" as="geometry" />
        </mxCell>
        <mxCell id="-72PhuZYiqAgGAwzkjjb-61" value="启动发送" style="whiteSpace=wrap;html=1;" vertex="1" parent="1">
          <mxGeometry x="950" y="560" width="120" height="60" as="geometry" />
        </mxCell>
        <mxCell id="-72PhuZYiqAgGAwzkjjb-66" style="edgeStyle=orthogonalEdgeStyle;rounded=0;orthogonalLoop=1;jettySize=auto;html=1;exitX=0.5;exitY=1;exitDx=0;exitDy=0;entryX=0.5;entryY=0;entryDx=0;entryDy=0;" edge="1" parent="1" source="-72PhuZYiqAgGAwzkjjb-64" target="-72PhuZYiqAgGAwzkjjb-61">
          <mxGeometry relative="1" as="geometry">
            <Array as="points">
              <mxPoint x="1280" y="490" />
              <mxPoint x="1010" y="490" />
            </Array>
          </mxGeometry>
        </mxCell>
        <mxCell id="-72PhuZYiqAgGAwzkjjb-72" style="edgeStyle=orthogonalEdgeStyle;rounded=0;orthogonalLoop=1;jettySize=auto;html=1;exitX=1;exitY=0.5;exitDx=0;exitDy=0;" edge="1" parent="1" source="-72PhuZYiqAgGAwzkjjb-64" target="-72PhuZYiqAgGAwzkjjb-70">
          <mxGeometry relative="1" as="geometry">
            <Array as="points">
              <mxPoint x="1440" y="400" />
              <mxPoint x="1440" y="670" />
              <mxPoint x="1010" y="670" />
            </Array>
          </mxGeometry>
        </mxCell>
        <mxCell id="-72PhuZYiqAgGAwzkjjb-64" value="是否有活动处于就绪状态" style="rhombus;whiteSpace=wrap;html=1;" vertex="1" parent="1">
          <mxGeometry x="1170" y="360" width="220" height="80" as="geometry" />
        </mxCell>
        <mxCell id="-72PhuZYiqAgGAwzkjjb-67" value="Y" style="text;html=1;align=center;verticalAlign=middle;resizable=0;points=[];autosize=1;strokeColor=none;" vertex="1" parent="1">
          <mxGeometry x="980" y="350" width="20" height="20" as="geometry" />
        </mxCell>
        <mxCell id="-72PhuZYiqAgGAwzkjjb-68" value="Y" style="text;html=1;align=center;verticalAlign=middle;resizable=0;points=[];autosize=1;strokeColor=none;" vertex="1" parent="1">
          <mxGeometry x="1250" y="450" width="20" height="20" as="geometry" />
        </mxCell>
        <mxCell id="-72PhuZYiqAgGAwzkjjb-69" value="N" style="text;html=1;align=center;verticalAlign=middle;resizable=0;points=[];autosize=1;strokeColor=none;" vertex="1" parent="1">
          <mxGeometry x="1140" y="250" width="20" height="20" as="geometry" />
        </mxCell>
        <mxCell id="-72PhuZYiqAgGAwzkjjb-70" value="正常启动" style="whiteSpace=wrap;html=1;" vertex="1" parent="1">
          <mxGeometry x="950" y="710" width="120" height="60" as="geometry" />
        </mxCell>
        <mxCell id="-72PhuZYiqAgGAwzkjjb-73" value="N" style="text;html=1;align=center;verticalAlign=middle;resizable=0;points=[];autosize=1;strokeColor=none;" vertex="1" parent="1">
          <mxGeometry x="1400" y="380" width="20" height="20" as="geometry" />
        </mxCell>
      </root>
    </mxGraphModel>
  </diagram>
</mxfile>
